STARTFONT 2.1
FONT -ADECW-Screen-Medium-R-Normal--24-240-75-75-M-120-DEC-DRCS
SIZE 24 75 75
FONTBOUNDINGBOX 12 24 0 -4

STARTPROPERTIES 26
FONTNAME_REGISTRY ""
FAMILY_NAME "Screen"
FOUNDRY "ADECW"
WEIGHT_NAME "Medium"
SLANT "R"
SETWIDTH_NAME "Normal"
ADD_STYLE_NAME ""
PIXEL_SIZE 24
POINT_SIZE 240
RESOLUTION_X 75
RESOLUTION_Y 75
SPACING "M"
AVERAGE_WIDTH 120
CHARSET_REGISTRY "DEC"
CHARSET_ENCODING "DRCS"
DEVICE_FONT_NAME "Screen-DRCS"
CHARSET_COLLECTIONS "DEC technical"
FULL_NAME "Screen DRCS"
COPYRIGHT "Copyright (c) 1988 Digital Equipment Corporation Japan."
CAP_HEIGHT 17
X_HEIGHT 12
QUAD_WIDTH 12
WEIGHT 10
DEFAULT_CHAR 32
FONT_DESCENT 4
FONT_ASCENT 20
ENDPROPERTIES

CHARS 95

STARTCHAR 0
ENCODING 32
SWIDTH 480 0
DWIDTH 12 0
BBX 12 24 0 -4
BITMAP
0000
0000
0000
0000
0000
0000
0000
0000
0000
0000
0000
0000
0000
0000
0000
0000
0000
0000
0000
0000
0000
0000
0000
0000
ENDCHAR

STARTCHAR 1
ENCODING 33
SWIDTH 480 0
DWIDTH 12 0
BBX 12 24 0 -4
BITMAP
0000
0000
0000
0000
0000
0000
0000
0000
0000
0000
0000
0000
0000
0000
0000
0000
0000
0000
0000
0000
0000
0000
0000
0000
ENDCHAR

STARTCHAR 2
ENCODING 34
SWIDTH 480 0
DWIDTH 12 0
BBX 12 24 0 -4
BITMAP
0000
0000
0000
0000
0000
0000
0000
0000
0000
0000
0000
0000
0000
0000
0000
0000
0000
0000
0000
0000
0000
0000
0000
0000
ENDCHAR

STARTCHAR 3
ENCODING 35
SWIDTH 480 0
DWIDTH 12 0
BBX 12 24 0 -4
BITMAP
0000
0000
0000
0000
0000
0000
0000
0000
0000
0000
0000
0000
0000
0000
0000
0000
0000
0000
0000
0000
0000
0000
0000
0000
ENDCHAR

STARTCHAR 4
ENCODING 36
SWIDTH 480 0
DWIDTH 12 0
BBX 12 24 0 -4
BITMAP
0000
0000
0000
0000
0000
0000
0000
0000
0000
0000
0000
0000
0000
0000
0000
0000
0000
0000
0000
0000
0000
0000
0000
0000
ENDCHAR

STARTCHAR 5
ENCODING 37
SWIDTH 480 0
DWIDTH 12 0
BBX 12 24 0 -4
BITMAP
0000
0000
0000
0000
0000
0000
0000
0000
0000
0000
0000
0000
0000
0000
0000
0000
0000
0000
0000
0000
0000
0000
0000
0000
ENDCHAR

STARTCHAR 6
ENCODING 38
SWIDTH 480 0
DWIDTH 12 0
BBX 12 24 0 -4
BITMAP
0000
0000
0000
0000
0000
0000
0000
0000
0000
0000
0000
0000
0000
0000
0000
0000
0000
0000
0000
0000
0000
0000
0000
0000
ENDCHAR

STARTCHAR 7
ENCODING 39
SWIDTH 480 0
DWIDTH 12 0
BBX 12 24 0 -4
BITMAP
0000
0000
0000
0000
0000
0000
0000
0000
0000
0000
0000
0000
0000
0000
0000
0000
0000
0000
0000
0000
0000
0000
0000
0000
ENDCHAR

STARTCHAR 8
ENCODING 40
SWIDTH 480 0
DWIDTH 12 0
BBX 12 24 0 -4
BITMAP
0000
0000
0000
0000
0000
0000
0000
0000
0000
0000
0000
0000
0000
0000
0000
0000
0000
0000
0000
0000
0000
0000
0000
0000
ENDCHAR

STARTCHAR 9
ENCODING 41
SWIDTH 480 0
DWIDTH 12 0
BBX 12 24 0 -4
BITMAP
0000
0000
0000
0000
0000
0000
0000
0000
0000
0000
0000
0000
0000
0000
FFF0
FFF0
C000
C000
C000
C000
C000
C000
C000
C000
ENDCHAR

STARTCHAR 10
ENCODING 42
SWIDTH 480 0
DWIDTH 12 0
BBX 12 24 0 -4
BITMAP
0000
0000
0000
0000
0000
0000
0000
0000
0000
0000
0000
0000
0000
0000
FFF0
FFF0
0030
0030
0030
0030
0030
0030
0030
0030
ENDCHAR

STARTCHAR 11
ENCODING 43
SWIDTH 480 0
DWIDTH 12 0
BBX 12 24 0 -4
BITMAP
C000
C000
C000
C000
C000
C000
C000
C000
FFF0
FFF0
0000
0000
0000
0000
0000
0000
0000
0000
0000
0000
0000
0000
0000
0000
ENDCHAR

STARTCHAR 12
ENCODING 44
SWIDTH 480 0
DWIDTH 12 0
BBX 12 24 0 -4
BITMAP
0030
0030
0030
0030
0030
0030
0030
0030
FFF0
FFF0
0000
0000
0000
0000
0000
0000
0000
0000
0000
0000
0000
0000
0000
0000
ENDCHAR

STARTCHAR 13
ENCODING 45
SWIDTH 480 0
DWIDTH 12 0
BBX 12 24 0 -4
BITMAP
0000
0000
0000
0000
0000
0000
0000
0000
0000
0000
0000
0000
0000
0000
FFF0
FFF0
0600
0600
0000
0000
0000
0000
0000
0000
ENDCHAR

STARTCHAR 14
ENCODING 46
SWIDTH 480 0
DWIDTH 12 0
BBX 12 24 0 -4
BITMAP
0000
0000
0000
0000
0F00
1080
1080
1080
1080
1080
1080
0F00
0000
0000
FFF0
FFF0
0600
0600
0000
0000
0000
0000
0000
0000
ENDCHAR

STARTCHAR 15
ENCODING 47
SWIDTH 480 0
DWIDTH 12 0
BBX 12 24 0 -4
BITMAP
0000
0000
0000
0000
1F80
1000
1000
1F00
0080
0080
1080
0F00
0000
0000
FFF0
FFF0
0600
0600
0000
0000
0000
0000
0000
0000
ENDCHAR

STARTCHAR 16
ENCODING 48
SWIDTH 480 0
DWIDTH 12 0
BBX 12 24 0 -4
BITMAP
0000
0000
0000
0000
0600
0F00
0F00
0600
0000
0000
0000
0000
0000
0000
0000
0000
0600
0F00
0F00
0600
0000
0000
0000
0000
ENDCHAR

STARTCHAR 17
ENCODING 49
SWIDTH 480 0
DWIDTH 12 0
BBX 12 24 0 -4
BITMAP
0000
0000
0F00
1F80
3FC0
3FC0
3FC0
3FC0
1F80
0F00
0000
0000
0000
0000
0000
0000
0600
0F00
0F00
0600
0000
0000
0000
0000
ENDCHAR

STARTCHAR 18
ENCODING 50
SWIDTH 480 0
DWIDTH 12 0
BBX 12 24 0 -4
BITMAP
0000
0000
0000
0000
0600
0F00
0F00
0600
0000
0000
0000
0000
0000
0000
0F00
1F80
3FC0
3FC0
3FC0
3FC0
1F80
0F00
0000
0000
ENDCHAR

STARTCHAR 19
ENCODING 51
SWIDTH 480 0
DWIDTH 12 0
BBX 12 24 0 -4
BITMAP
0000
0000
0F00
1F80
3FC0
3FC0
3FC0
3FC0
1F80
0F00
0000
0000
0000
0000
0F00
1F80
3FC0
3FC0
3FC0
3FC0
1F80
0F00
0000
0000
ENDCHAR

STARTCHAR 20
ENCODING 52
SWIDTH 480 0
DWIDTH 12 0
BBX 12 24 0 -4
BITMAP
FFF0
FFF0
FFF0
FFF0
F9F0
F0F0
F0F0
F9F0
FFF0
FFF0
FFF0
FFF0
0000
0000
0000
0000
0600
0F00
0F00
0600
0000
0000
0000
0000
ENDCHAR

STARTCHAR 21
ENCODING 53
SWIDTH 480 0
DWIDTH 12 0
BBX 12 24 0 -4
BITMAP
FFF0
FFF0
F0F0
E070
C030
C030
C030
C030
E070
F0F0
FFF0
FFF0
0000
0000
0000
0000
0600
0F00
0F00
0600
0000
0000
0000
0000
ENDCHAR

STARTCHAR 22
ENCODING 54
SWIDTH 480 0
DWIDTH 12 0
BBX 12 24 0 -4
BITMAP
FFF0
FFF0
FFF0
FFF0
F9F0
F0F0
F0F0
F9F0
FFF0
FFF0
FFF0
FFF0
0000
0000
0F00
1F80
3FC0
3FC0
3FC0
3FC0
1F80
0F00
0000
0000
ENDCHAR

STARTCHAR 23
ENCODING 55
SWIDTH 480 0
DWIDTH 12 0
BBX 12 24 0 -4
BITMAP
FFF0
FFF0
F0F0
E070
C030
C030
C030
C030
E070
F0F0
FFF0
FFF0
0000
0000
0F00
1F80
3FC0
3FC0
3FC0
3FC0
1F80
0F00
0000
0000
ENDCHAR

STARTCHAR 24
ENCODING 56
SWIDTH 480 0
DWIDTH 12 0
BBX 12 24 0 -4
BITMAP
0000
0000
0000
0000
0600
0F00
0F00
0600
0000
0000
0000
0000
FFF0
FFF0
FFF0
FFF0
F9F0
F0F0
F0F0
F9F0
FFF0
FFF0
FFF0
FFF0
ENDCHAR

STARTCHAR 25
ENCODING 57
SWIDTH 480 0
DWIDTH 12 0
BBX 12 24 0 -4
BITMAP
0000
0000
0F00
1F80
3FC0
3FC0
3FC0
3FC0
1F80
0F00
0000
0000
FFF0
FFF0
FFF0
FFF0
F9F0
F0F0
F0F0
F9F0
FFF0
FFF0
FFF0
FFF0
ENDCHAR

STARTCHAR 26
ENCODING 58
SWIDTH 480 0
DWIDTH 12 0
BBX 12 24 0 -4
BITMAP
0000
0000
0000
0000
0600
0F00
0F00
0600
0000
0000
0000
0000
FFF0
FFF0
F0F0
E070
C030
C030
C030
C030
E070
F0F0
FFF0
FFF0
ENDCHAR

STARTCHAR 27
ENCODING 59
SWIDTH 480 0
DWIDTH 12 0
BBX 12 24 0 -4
BITMAP
0000
0000
0F00
1F80
3FC0
3FC0
3FC0
3FC0
1F80
0F00
0000
0000
FFF0
FFF0
F0F0
E070
C030
C030
C030
C030
E070
F0F0
FFF0
FFF0
ENDCHAR

STARTCHAR 28
ENCODING 60
SWIDTH 480 0
DWIDTH 12 0
BBX 12 24 0 -4
BITMAP
FFF0
FFF0
FFF0
FFF0
F9F0
F0F0
F0F0
F9F0
FFF0
FFF0
FFF0
FFF0
FFF0
FFF0
FFF0
FFF0
F9F0
F0F0
F0F0
F9F0
FFF0
FFF0
FFF0
FFF0
ENDCHAR

STARTCHAR 29
ENCODING 61
SWIDTH 480 0
DWIDTH 12 0
BBX 12 24 0 -4
BITMAP
FFF0
FFF0
F0F0
E070
C030
C030
C030
C030
E070
F0F0
FFF0
FFF0
FFF0
FFF0
FFF0
FFF0
F9F0
F0F0
F0F0
F9F0
FFF0
FFF0
FFF0
FFF0
ENDCHAR

STARTCHAR 30
ENCODING 62
SWIDTH 480 0
DWIDTH 12 0
BBX 12 24 0 -4
BITMAP
FFF0
FFF0
FFF0
FFF0
F9F0
F0F0
F0F0
F9F0
FFF0
FFF0
FFF0
FFF0
FFF0
FFF0
F0F0
E070
C030
C030
C030
C030
E070
F0F0
FFF0
FFF0
ENDCHAR

STARTCHAR 31
ENCODING 63
SWIDTH 480 0
DWIDTH 12 0
BBX 12 24 0 -4
BITMAP
FFF0
FFF0
F0F0
E070
C030
C030
C030
C030
E070
F0F0
FFF0
FFF0
FFF0
FFF0
F0F0
E070
C030
C030
C030
C030
E070
F0F0
FFF0
FFF0
ENDCHAR

STARTCHAR 32
ENCODING 64
SWIDTH 480 0
DWIDTH 12 0
BBX 12 24 0 -4
BITMAP
0000
0000
0000
0F00
0F00
0F00
0F00
0F00
0F00
0000
0000
0000
0000
0000
0000
0000
0600
0F00
0F00
0600
0000
0000
0000
0000
ENDCHAR

STARTCHAR 33
ENCODING 65
SWIDTH 480 0
DWIDTH 12 0
BBX 12 24 0 -4
BITMAP
0000
0000
0F00
1080
30C0
30C0
30C0
30C0
1080
0F00
0000
0000
0000
0000
0000
0000
0600
0F00
0F00
0600
0000
0000
0000
0000
ENDCHAR

STARTCHAR 34
ENCODING 66
SWIDTH 480 0
DWIDTH 12 0
BBX 12 24 0 -4
BITMAP
0000
0000
0000
0F00
0F00
0F00
0F00
0F00
0F00
0000
0000
0000
0000
0000
0F00
1F80
3FC0
3FC0
3FC0
3FC0
1F80
0F00
0000
0000
ENDCHAR

STARTCHAR 35
ENCODING 67
SWIDTH 480 0
DWIDTH 12 0
BBX 12 24 0 -4
BITMAP
0000
0000
0F00
1080
30C0
30C0
30C0
30C0
1080
0F00
0000
0000
0000
0000
0F00
1F80
3FC0
3FC0
3FC0
3FC0
1F80
0F00
0000
0000
ENDCHAR

STARTCHAR 36
ENCODING 68
SWIDTH 480 0
DWIDTH 12 0
BBX 12 24 0 -4
BITMAP
FFF0
FFF0
FFF0
F0F0
F0F0
F0F0
F0F0
F0F0
F0F0
FFF0
FFF0
FFF0
0000
0000
0000
0000
0600
0F00
0F00
0600
0000
0000
0000
0000
ENDCHAR

STARTCHAR 37
ENCODING 69
SWIDTH 480 0
DWIDTH 12 0
BBX 12 24 0 -4
BITMAP
FFF0
FFF0
F0F0
EF70
CF30
CF30
CF30
CF30
EF70
F0F0
FFF0
FFF0
0000
0000
0000
0000
0600
0F00
0F00
0600
0000
0000
0000
0000
ENDCHAR

STARTCHAR 38
ENCODING 70
SWIDTH 480 0
DWIDTH 12 0
BBX 12 24 0 -4
BITMAP
FFF0
FFF0
FFF0
F0F0
F0F0
F0F0
F0F0
F0F0
F0F0
FFF0
FFF0
FFF0
0000
0000
0F00
1F80
3FC0
3FC0
3FC0
3FC0
1F80
0F00
0000
0000
ENDCHAR

STARTCHAR 39
ENCODING 71
SWIDTH 480 0
DWIDTH 12 0
BBX 12 24 0 -4
BITMAP
FFF0
FFF0
F0F0
EF70
CF30
CF30
CF30
CF30
EF70
F0F0
FFF0
FFF0
0000
0000
0F00
1F80
3FC0
3FC0
3FC0
3FC0
1F80
0F00
0000
0000
ENDCHAR

STARTCHAR 40
ENCODING 72
SWIDTH 480 0
DWIDTH 12 0
BBX 12 24 0 -4
BITMAP
0000
0000
0000
0F00
0F00
0F00
0F00
0F00
0F00
0000
0000
0000
FFF0
FFF0
FFF0
FFF0
F9F0
F0F0
F0F0
F9F0
FFF0
FFF0
FFF0
FFF0
ENDCHAR

STARTCHAR 41
ENCODING 73
SWIDTH 480 0
DWIDTH 12 0
BBX 12 24 0 -4
BITMAP
0000
0000
0F00
1080
30C0
30C0
30C0
30C0
1080
0F00
0000
0000
FFF0
FFF0
FFF0
FFF0
F9F0
F0F0
F0F0
F9F0
FFF0
FFF0
FFF0
FFF0
ENDCHAR

STARTCHAR 42
ENCODING 74
SWIDTH 480 0
DWIDTH 12 0
BBX 12 24 0 -4
BITMAP
0000
0000
0000
0F00
0F00
0F00
0F00
0F00
0F00
0000
0000
0000
FFF0
FFF0
F0F0
E070
C030
C030
C030
C030
E070
F0F0
FFF0
FFF0
ENDCHAR

STARTCHAR 43
ENCODING 75
SWIDTH 480 0
DWIDTH 12 0
BBX 12 24 0 -4
BITMAP
0000
0000
0F00
1080
30C0
30C0
30C0
30C0
1080
0F00
0000
0000
FFF0
FFF0
F0F0
E070
C030
C030
C030
C030
E070
F0F0
FFF0
FFF0
ENDCHAR

STARTCHAR 44
ENCODING 76
SWIDTH 480 0
DWIDTH 12 0
BBX 12 24 0 -4
BITMAP
FFF0
FFF0
FFF0
F0F0
F0F0
F0F0
F0F0
F0F0
F0F0
FFF0
FFF0
FFF0
FFF0
FFF0
FFF0
FFF0
F9F0
F0F0
F0F0
F9F0
FFF0
FFF0
FFF0
FFF0
ENDCHAR

STARTCHAR 45
ENCODING 77
SWIDTH 480 0
DWIDTH 12 0
BBX 12 24 0 -4
BITMAP
FFF0
FFF0
F0F0
EF70
CF30
CF30
CF30
CF30
EF70
F0F0
FFF0
FFF0
FFF0
FFF0
FFF0
FFF0
F9F0
F0F0
F0F0
F9F0
FFF0
FFF0
FFF0
FFF0
ENDCHAR

STARTCHAR 46
ENCODING 78
SWIDTH 480 0
DWIDTH 12 0
BBX 12 24 0 -4
BITMAP
FFF0
FFF0
FFF0
F0F0
F0F0
F0F0
F0F0
F0F0
F0F0
FFF0
FFF0
FFF0
FFF0
FFF0
F0F0
E070
C030
C030
C030
C030
E070
F0F0
FFF0
FFF0
ENDCHAR

STARTCHAR 47
ENCODING 79
SWIDTH 480 0
DWIDTH 12 0
BBX 12 24 0 -4
BITMAP
FFF0
FFF0
F0F0
EF70
CF30
CF30
CF30
CF30
EF70
F0F0
FFF0
FFF0
FFF0
FFF0
F0F0
E070
C030
C030
C030
C030
E070
F0F0
FFF0
FFF0
ENDCHAR

STARTCHAR 48
ENCODING 80
SWIDTH 480 0
DWIDTH 12 0
BBX 12 24 0 -4
BITMAP
0000
0000
0000
0000
0600
0F00
0F00
0600
0000
0000
0000
0000
0000
0000
0000
0F00
0F00
0F00
0F00
0F00
0F00
0000
0000
0000
ENDCHAR

STARTCHAR 49
ENCODING 81
SWIDTH 480 0
DWIDTH 12 0
BBX 12 24 0 -4
BITMAP
0000
0000
0F00
1F80
3FC0
3FC0
3FC0
3FC0
1F80
0F00
0000
0000
0000
0000
0000
0F00
0F00
0F00
0F00
0F00
0F00
0000
0000
0000
ENDCHAR

STARTCHAR 50
ENCODING 82
SWIDTH 480 0
DWIDTH 12 0
BBX 12 24 0 -4
BITMAP
0000
0000
0000
0000
0600
0F00
0F00
0600
0000
0000
0000
0000
0000
0000
0F00
1080
30C0
30C0
30C0
30C0
1080
0F00
0000
0000
ENDCHAR

STARTCHAR 51
ENCODING 83
SWIDTH 480 0
DWIDTH 12 0
BBX 12 24 0 -4
BITMAP
0000
0000
0F00
1F80
3FC0
3FC0
3FC0
3FC0
1F80
0F00
0000
0000
0000
0000
0F00
1080
30C0
30C0
30C0
30C0
1080
0F00
0000
0000
ENDCHAR

STARTCHAR 52
ENCODING 84
SWIDTH 480 0
DWIDTH 12 0
BBX 12 24 0 -4
BITMAP
FFF0
FFF0
FFF0
FFF0
F9F0
F0F0
F0F0
F9F0
FFF0
FFF0
FFF0
FFF0
0000
0000
0000
0F00
0F00
0F00
0F00
0F00
0F00
0000
0000
0000
ENDCHAR

STARTCHAR 53
ENCODING 85
SWIDTH 480 0
DWIDTH 12 0
BBX 12 24 0 -4
BITMAP
FFF0
FFF0
F0F0
E070
C030
C030
C030
C030
E070
F0F0
FFF0
FFF0
0000
0000
0000
0F00
0F00
0F00
0F00
0F00
0F00
0000
0000
0000
ENDCHAR

STARTCHAR 54
ENCODING 86
SWIDTH 480 0
DWIDTH 12 0
BBX 12 24 0 -4
BITMAP
FFF0
FFF0
FFF0
FFF0
F9F0
F0F0
F0F0
F9F0
FFF0
FFF0
FFF0
FFF0
0000
0000
0F00
1080
30C0
30C0
30C0
30C0
1080
0F00
0000
0000
ENDCHAR

STARTCHAR 55
ENCODING 87
SWIDTH 480 0
DWIDTH 12 0
BBX 12 24 0 -4
BITMAP
FFF0
FFF0
F0F0
E070
C030
C030
C030
C030
E070
F0F0
FFF0
FFF0
0000
0000
0F00
1080
30C0
30C0
30C0
30C0
1080
0F00
0000
0000
ENDCHAR

STARTCHAR 56
ENCODING 88
SWIDTH 480 0
DWIDTH 12 0
BBX 12 24 0 -4
BITMAP
0000
0000
0000
0000
0600
0F00
0F00
0600
0000
0000
0000
0000
FFF0
FFF0
FFF0
F0F0
F0F0
F0F0
F0F0
F0F0
F0F0
FFF0
FFF0
FFF0
ENDCHAR

STARTCHAR 57
ENCODING 89
SWIDTH 480 0
DWIDTH 12 0
BBX 12 24 0 -4
BITMAP
0000
0000
0F00
1F80
3FC0
3FC0
3FC0
3FC0
1F80
0F00
0000
0000
FFF0
FFF0
FFF0
F0F0
F0F0
F0F0
F0F0
F0F0
F0F0
FFF0
FFF0
FFF0
ENDCHAR

STARTCHAR 58
ENCODING 90
SWIDTH 480 0
DWIDTH 12 0
BBX 12 24 0 -4
BITMAP
0000
0000
0000
0000
0600
0F00
0F00
0600
0000
0000
0000
0000
FFF0
FFF0
F0F0
EF70
CF30
CF30
CF30
CF30
EF70
F0F0
FFF0
FFF0
ENDCHAR

STARTCHAR 59
ENCODING 91
SWIDTH 480 0
DWIDTH 12 0
BBX 12 24 0 -4
BITMAP
0000
0000
0F00
1F80
3FC0
3FC0
3FC0
3FC0
1F80
0F00
0000
0000
FFF0
FFF0
F0F0
EF70
CF30
CF30
CF30
CF30
EF70
F0F0
FFF0
FFF0
ENDCHAR

STARTCHAR 60
ENCODING 92
SWIDTH 480 0
DWIDTH 12 0
BBX 12 24 0 -4
BITMAP
FFF0
FFF0
FFF0
FFF0
F9F0
F0F0
F0F0
F9F0
FFF0
FFF0
FFF0
FFF0
FFF0
FFF0
FFF0
F0F0
F0F0
F0F0
F0F0
F0F0
F0F0
FFF0
FFF0
FFF0
ENDCHAR

STARTCHAR 61
ENCODING 93
SWIDTH 480 0
DWIDTH 12 0
BBX 12 24 0 -4
BITMAP
FFF0
FFF0
F0F0
E070
C030
C030
C030
C030
E070
F0F0
FFF0
FFF0
FFF0
FFF0
FFF0
F0F0
F0F0
F0F0
F0F0
F0F0
F0F0
FFF0
FFF0
FFF0
ENDCHAR

STARTCHAR 62
ENCODING 94
SWIDTH 480 0
DWIDTH 12 0
BBX 12 24 0 -4
BITMAP
FFF0
FFF0
FFF0
FFF0
F9F0
F0F0
F0F0
F9F0
FFF0
FFF0
FFF0
FFF0
FFF0
FFF0
F0F0
EF70
CF30
CF30
CF30
CF30
EF70
F0F0
FFF0
FFF0
ENDCHAR

STARTCHAR 63
ENCODING 95
SWIDTH 480 0
DWIDTH 12 0
BBX 12 24 0 -4
BITMAP
FFF0
FFF0
F0F0
E070
C030
C030
C030
C030
E070
F0F0
FFF0
FFF0
FFF0
FFF0
F0F0
EF70
CF30
CF30
CF30
CF30
EF70
F0F0
FFF0
FFF0
ENDCHAR

STARTCHAR 64
ENCODING 96
SWIDTH 480 0
DWIDTH 12 0
BBX 12 24 0 -4
BITMAP
0000
0000
0000
0000
0000
0000
0000
0000
0000
0000
0000
0000
0000
0000
0000
0000
0000
0000
0000
0000
0000
0000
0000
0000
ENDCHAR

STARTCHAR 65
ENCODING 97
SWIDTH 480 0
DWIDTH 12 0
BBX 12 24 0 -4
BITMAP
0000
0000
0000
0000
0000
0000
0000
0000
0000
0000
0000
0000
0000
0000
0000
0000
0000
0000
0000
0000
0000
0000
0000
0000
ENDCHAR

STARTCHAR 66
ENCODING 98
SWIDTH 480 0
DWIDTH 12 0
BBX 12 24 0 -4
BITMAP
0000
0000
0000
0000
0000
0000
0000
0000
0000
0000
0000
0000
0000
0000
0000
0000
0000
0000
0000
0000
0000
0000
0000
0000
ENDCHAR

STARTCHAR 67
ENCODING 99
SWIDTH 480 0
DWIDTH 12 0
BBX 12 24 0 -4
BITMAP
0000
0000
0000
0000
0000
0000
0000
0000
0000
0000
0000
0000
0000
0000
0000
0000
0000
0000
0000
0000
0000
0000
0000
0000
ENDCHAR

STARTCHAR 68
ENCODING 100
SWIDTH 480 0
DWIDTH 12 0
BBX 12 24 0 -4
BITMAP
0000
0000
0000
0000
0000
0000
0000
0000
0000
0000
0000
0000
0000
0000
0000
0000
0000
0000
0000
0000
0000
0000
0000
0000
ENDCHAR

STARTCHAR 69
ENCODING 101
SWIDTH 480 0
DWIDTH 12 0
BBX 12 24 0 -4
BITMAP
0000
0000
0000
0000
0000
0000
0000
0000
0000
0000
0000
0000
0000
0000
0000
0000
0000
0000
0000
0000
0000
0000
0000
0000
ENDCHAR

STARTCHAR 70
ENCODING 102
SWIDTH 480 0
DWIDTH 12 0
BBX 12 24 0 -4
BITMAP
0000
0000
0000
0000
0000
0000
0000
0000
0000
0000
0000
0000
0000
0000
0000
0000
0000
0000
0000
0000
0000
0000
0000
0000
ENDCHAR

STARTCHAR 71
ENCODING 103
SWIDTH 480 0
DWIDTH 12 0
BBX 12 24 0 -4
BITMAP
0000
0000
0000
0000
0000
0000
0000
0000
0000
0000
0000
0000
0000
0000
0000
0000
0000
0000
0000
0000
0000
0000
0000
0000
ENDCHAR

STARTCHAR 72
ENCODING 104
SWIDTH 480 0
DWIDTH 12 0
BBX 12 24 0 -4
BITMAP
0000
0000
0000
0000
0000
0000
0000
0000
0000
0000
0000
0000
0000
0000
0000
0000
0000
0000
0000
0000
0000
0000
0000
0000
ENDCHAR

STARTCHAR 73
ENCODING 105
SWIDTH 480 0
DWIDTH 12 0
BBX 12 24 0 -4
BITMAP
0000
0000
0000
0000
0000
0000
0000
0000
0000
0000
0000
0000
0000
0000
0000
0000
0000
0000
0000
0000
0000
0000
0000
0000
ENDCHAR

STARTCHAR 74
ENCODING 106
SWIDTH 480 0
DWIDTH 12 0
BBX 12 24 0 -4
BITMAP
0000
0000
0000
0000
0000
0000
0000
0000
0000
0000
0000
0000
0000
0000
0000
0000
0000
0000
0000
0000
0000
0000
0000
0000
ENDCHAR

STARTCHAR 75
ENCODING 107
SWIDTH 480 0
DWIDTH 12 0
BBX 12 24 0 -4
BITMAP
0000
0000
0000
0000
0000
0000
0000
0000
0000
0000
0000
0000
0000
0000
0000
0000
0000
0000
0000
0000
0000
0000
0000
0000
ENDCHAR

STARTCHAR 76
ENCODING 108
SWIDTH 480 0
DWIDTH 12 0
BBX 12 24 0 -4
BITMAP
0000
0000
0000
0000
0000
0000
0000
0000
0000
0000
0000
0000
0000
0000
0000
0000
0000
0000
0000
0000
0000
0000
0000
0000
ENDCHAR

STARTCHAR 77
ENCODING 109
SWIDTH 480 0
DWIDTH 12 0
BBX 12 24 0 -4
BITMAP
0000
0000
0000
0000
0000
0000
0000
0000
0000
0000
0000
0000
0000
0000
0000
0000
0000
0000
0000
0000
0000
0000
0000
0000
ENDCHAR

STARTCHAR 78
ENCODING 110
SWIDTH 480 0
DWIDTH 12 0
BBX 12 24 0 -4
BITMAP
0000
0000
0000
0000
0000
0000
0000
0000
0000
0000
0000
0000
0000
0000
0000
0000
0000
0000
0000
0000
0000
0000
0000
0000
ENDCHAR

STARTCHAR 79
ENCODING 111
SWIDTH 480 0
DWIDTH 12 0
BBX 12 24 0 -4
BITMAP
0000
0000
0000
0000
0000
0000
0000
0000
0000
0000
0000
0000
0000
0000
0000
0000
0000
0000
0000
0000
0000
0000
0000
0000
ENDCHAR

STARTCHAR 80
ENCODING 112
SWIDTH 480 0
DWIDTH 12 0
BBX 12 24 0 -4
BITMAP
0000
0000
0000
0000
0000
0000
0000
0000
0000
0000
0000
0000
0000
0000
0000
0000
0000
0000
0000
0000
0000
0000
0000
0000
ENDCHAR

STARTCHAR 81
ENCODING 113
SWIDTH 480 0
DWIDTH 12 0
BBX 12 24 0 -4
BITMAP
0000
0000
0000
0000
0000
0000
0000
0000
0000
0000
0000
0000
0000
0000
0000
0000
0000
0000
0000
0000
0000
0000
0000
0000
ENDCHAR

STARTCHAR 82
ENCODING 114
SWIDTH 480 0
DWIDTH 12 0
BBX 12 24 0 -4
BITMAP
0000
0000
0000
0000
0000
0000
0000
0000
0000
0000
0000
0000
0000
0000
0000
0000
0000
0000
0000
0000
0000
0000
0000
0000
ENDCHAR

STARTCHAR 83
ENCODING 115
SWIDTH 480 0
DWIDTH 12 0
BBX 12 24 0 -4
BITMAP
0000
0000
0000
0000
0000
0000
0000
0000
0000
0000
0000
0000
0000
0000
0000
0000
0000
0000
0000
0000
0000
0000
0000
0000
ENDCHAR

STARTCHAR 84
ENCODING 116
SWIDTH 480 0
DWIDTH 12 0
BBX 12 24 0 -4
BITMAP
0000
0000
0000
0000
0000
0000
0000
0000
0000
0000
0000
0000
0000
0000
0000
0000
0000
0000
0000
0000
0000
0000
0000
0000
ENDCHAR

STARTCHAR 85
ENCODING 117
SWIDTH 480 0
DWIDTH 12 0
BBX 12 24 0 -4
BITMAP
0000
0000
0000
0000
0000
0000
0000
0000
0000
0000
0000
0000
0000
0000
0000
0000
0000
0000
0000
0000
0000
0000
0000
0000
ENDCHAR

STARTCHAR 86
ENCODING 118
SWIDTH 480 0
DWIDTH 12 0
BBX 12 24 0 -4
BITMAP
0000
0000
0000
0000
0000
0000
0000
0000
0000
0000
0000
0000
0000
0000
0000
0000
0000
0000
0000
0000
0000
0000
0000
0000
ENDCHAR

STARTCHAR 87
ENCODING 119
SWIDTH 480 0
DWIDTH 12 0
BBX 12 24 0 -4
BITMAP
0000
0000
0000
0000
0000
0000
0000
0000
0000
0000
0000
0000
0000
0000
0000
0000
0000
0000
0000
0000
0000
0000
0000
0000
ENDCHAR

STARTCHAR 88
ENCODING 120
SWIDTH 480 0
DWIDTH 12 0
BBX 12 24 0 -4
BITMAP
0000
0000
0000
0000
0000
0000
0600
0600
FFF0
FFF0
0000
0000
0000
0000
0000
0000
0000
0000
0000
0000
0000
0000
0000
0000
ENDCHAR

STARTCHAR 89
ENCODING 121
SWIDTH 480 0
DWIDTH 12 0
BBX 12 24 0 -4
BITMAP
0000
0000
0000
0000
0000
0000
0600
0600
FFF0
FFF0
0000
0000
0F00
1080
1080
1080
1080
1080
1080
0F00
0000
0000
0000
0000
ENDCHAR

STARTCHAR 90
ENCODING 122
SWIDTH 480 0
DWIDTH 12 0
BBX 12 24 0 -4
BITMAP
0000
0000
0000
0000
0000
0000
0600
0600
FFF0
FFF0
0000
0000
1F80
1000
1000
1F00
0080
0080
1080
0F00
0000
0000
0000
0000
ENDCHAR

STARTCHAR 91
ENCODING 123
SWIDTH 480 0
DWIDTH 12 0
BBX 12 24 0 -4
BITMAP
C000
C000
C000
C000
C000
F000
F000
C000
C000
C000
C000
C000
C000
C000
C000
C000
C000
F000
F000
C000
C000
C000
C000
C000
ENDCHAR

STARTCHAR 92
ENCODING 124
SWIDTH 480 0
DWIDTH 12 0
BBX 12 24 0 -4
BITMAP
0030
0030
0030
0030
0030
00F0
00F0
0030
0030
0030
0030
0030
0030
0030
0030
0030
00F0
00F0
0030
0030
0030
0030
0030
0030
ENDCHAR

STARTCHAR 93
ENCODING 125
SWIDTH 480 0
DWIDTH 12 0
BBX 12 24 0 -4
BITMAP
0000
0000
0F00
1080
1080
1080
1080
1080
1080
0F00
0000
0000
0000
0000
0000
0000
0000
0000
0000
0000
0000
0000
0000
0000
ENDCHAR

STARTCHAR 94
ENCODING 126
SWIDTH 480 0
DWIDTH 12 0
BBX 12 24 0 -4
BITMAP
0000
0000
0000
0000
0000
0000
0000
0000
0000
0000
1F80
1000
1000
1F00
0080
0080
1080
0F00
0000
0000
0000
0000
0000
0000
ENDCHAR
ENDFONT
